# xmcd CD database file
#
# Track frame offsets:
#	150
#	24871
#	26575
#	52104
#	71466
#	72250
#	94107
#	106915
#	128404
#	130734
#	152245
#	177407
#	180555
#	214333
#	238072
#	244781
#	265458
#	286124
#
# Disc length: 4140 seconds
#
# Revision: 2
# Processed by: cddbd v1.5.2PL0 Copyright (c) Steve Scherf et al.
# Submitted via: CDex 1.51
#
DISCID=fd102a12
DTITLE=KlezRoym - Scenì
DYEAR=2000
DGENRE=Jazz
TTITLE0=Trokar Kazal, Trokar Mazal
TTITLE1=Radio Freylach
TTITLE2=To East
TTITLE3=Canzone dell' amore perduto
TTITLE4=Radio Freylach (2)
TTITLE5=Szol a Kakas Mar
TTITLE6=Arum Dem Fayer
TTITLE7=Scenì, Scenì
TTITLE8=Radio Freylach (3)
TTITLE9=Nostalgia
TTITLE10=Regalo di nozze
TTITLE11=Radio Freylach (4)
TTITLE12=Klezmer Song
TTITLE13=Morenica
TTITLE14=Radio Freylach (5)
TTITLE15=Oyfn Pripetschik
TTITLE16=Morenica Remix
TTITLE17=Oyfn Pripetshik Open File Remix
EXTD=YEAR: 2000
EXTT0=
EXTT1=
EXTT2=
EXTT3=
EXTT4=
EXTT5=
EXTT6=
EXTT7=
EXTT8=
EXTT9=
EXTT10=
EXTT11=
EXTT12=
EXTT13=
EXTT14=
EXTT15=
EXTT16=
EXTT17=
PLAYORDER=
